<svg viewBox="0 0 571 139" xmlns="http://www.w3.org/2000/svg"><style>.st0{fill:#fff}.st1{fill:#2ca01c}</style><switch><g><path class="st0" d="M565.8 84.8c0-1.2-1-1.6-2-1.6h-1.9v5.4h1v-2.2h.7l1.3 2.2h1.2l-1.4-2.3c.6-.2 1.1-.7 1.1-1.5zm-2.9.8V84h.9c.5 0 1.1.1 1.1.7s-.6.8-1.2.8h-.8zm.9-4.4c-2.6 0-4.8 2.1-4.8 4.8 0 2.6 2.1 4.7 4.8 4.7 2.6 0 4.8-2.1 4.8-4.7-.1-2.7-2.2-4.8-4.8-4.8zm0 8.7c-2.2 0-4-1.8-4-4s1.8-4 4-4 4 1.8 4 4-1.8 4-4 4zM256.6 82c-7 0-10.5-6.2-10.5-12.3 0-6 3.8-12 10.2-12 3 0 6.7 1.5 8.2 3.6l7.4-7.4c-3.6-3.8-9.3-6-15.6-6-12.9 0-22.2 9.2-22.2 21.9 0 12.9 9.2 21.9 22.4 21.9 6.3 0 12.1-1.8 15.5-5.5l-7.2-7.7c-1.6 2-5.1 3.5-8.2 3.5zm-41.4 8.6h11.5V49.1h-11.5v41.5zm-20.9-18.8c0 4.9-3.2 10.1-9.1 10.1-4.6 0-7-3.3-7-10V49.1h-11.5v25.8c0 8.6 4.3 16.9 15.7 16.9 5.4 0 9.9-4.3 12.2-7.4h.2v6.2h11V49.1h-11.5v22.7zM146 54.3h-.3c-1.6-1.8-6-6.4-13.1-6.4-11.7 0-20.7 9.2-20.7 21.8 0 12.8 8.3 22.1 20.2 22.1 5.4 0 10.4-2.8 13.4-6.2h.2v25.5h11.5v-62H146v5.2zM134.9 82c-7.1 0-11.1-6.2-11.1-12.3 0-5.8 3.7-12.1 11.1-12.1 6.8 0 11.1 6.4 11.1 12.3S141.8 82 134.9 82zm261.3-34.1c-13.1 0-22.5 9.2-22.5 21.8 0 13.1 9.7 22.2 22.5 22.2s22.5-9.3 22.5-22.2c.1-12.7-9.4-21.8-22.5-21.8zm0 34.1c-7.5 0-10.9-6.4-10.9-12.3 0-5.8 3.4-12.1 10.9-12.1s10.9 6.3 10.9 12.1c0 5.9-3.4 12.3-10.9 12.3zm143.5-17c-5.9-1.4-8-2.2-8-4.6 0-3.3 4.2-4 6.1-4 3.6 0 7.6 2.1 9.1 4.1l6.8-6.5c-3.1-3.9-9.3-6.2-15.8-6.2-8.3 0-17 4.2-17 13.5 0 8 6.3 10.4 12.4 11.9 6.5 1.5 8.8 2.6 8.8 5.2 0 3.8-4.4 4.5-5.9 4.5-3.8 0-8.1-2.1-10.4-4.9l-7 7.1c3.8 4.2 10.3 6.8 17 6.8 11.2 0 17.9-5.3 17.9-14.2-.1-8.4-8.2-11.3-14-12.7zM518 49.1h-14.8l-14.8 17.2h-.3V26.2h-11.5v64.4h11.5V70.1h.3l15.4 20.5h15.1L501 67.9l17-18.8zm-170.2-1.2c-5.2 0-9.1 2.3-12.8 5.7h-.2V26.2h-11.5v64.4h11v-5.9h.2c2.6 4.2 7.7 7 13.1 7 11.8 0 20.8-9.3 20.8-22.1 0-12.6-8.9-21.7-20.6-21.7zM345.6 82c-6.9 0-11.1-6.2-11.1-12.1s4.2-12.3 11.1-12.3c7.4 0 11.1 6.3 11.1 12.1 0 6.1-4 12.3-11.1 12.3zm-26.5-32.9h-14.8l-14.8 17.2h-.3V26.2h-11.5v64.4h11.5V70.1h.3l15.4 20.5H320l-17.9-22.7 17-18.8zm127.5-1.2c-13.1 0-22.5 9.2-22.5 21.8 0 13.1 9.7 22.2 22.5 22.2s22.5-9.3 22.5-22.2c.1-12.7-9.4-21.8-22.5-21.8zm0 34.1c-7.5 0-10.9-6.4-10.9-12.3 0-5.8 3.4-12.1 10.9-12.1s10.9 6.3 10.9 12.1c0 5.9-3.4 12.3-10.9 12.3z"/><circle class="st1" cx="50.7" cy="50.3" r="48.3"/><path class="st0" d="M15.8 50.3c0 10.4 8.4 18.8 18.8 18.8h2.7v-7h-2.7c-6.5 0-11.8-5.3-11.8-11.8s5.3-11.8 11.8-11.8H41V75c0 3.9 3.1 7 7 7V31.5H34.6c-10.4 0-18.8 8.4-18.8 18.8zm51-18.8h-2.7v7h2.7c6.5 0 11.8 5.3 11.8 11.8s-5.3 11.8-11.8 11.8h-6.5V25.6c0-3.9-3.1-7-7-7v50.5h13.4c10.4 0 18.8-8.4 18.8-18.8.1-10.3-8.3-18.8-18.7-18.8zM159.2 13c1.8 0 3.2-1.4 3.2-3.2s-1.4-3.2-3.2-3.2S156 8 156 9.8s1.5 3.2 3.2 3.2zm-19 2.2c-3.1 0-5.6 1.9-6.6 4h-.1v-3.4h-5v21.1h5.3V25.3c0-2.8 1.6-5.7 4.9-5.7 3.4 0 4 3.1 4 5.6v11.7h5.3V23.7c0-4.3-2.3-8.5-7.8-8.5zm-22.4 21.7h5.3V15.8h-5.3v21.1zM213.9 13c1.8 0 3.2-1.4 3.2-3.2s-1.4-3.2-3.2-3.2-3.2 1.4-3.2 3.2 1.5 3.2 3.2 3.2zm-8.5 2.8v4.7h5.9V37h5.3V20.4h5.9v-4.7h-17.1zm-9 21.1h5.3V15.8h-5.3v21.1zm-45.7-16.5h5.9v16.5h5.3V20.4h5.9v-4.7h-17.1v4.7zm35 7c0 2.8-1.6 5.7-4.9 5.7-3.4 0-4-3.1-4-5.6V15.8h-5.3V29c0 4.3 2.3 8.5 7.8 8.5 3.1 0 5.6-1.9 6.6-4h.1v3.4h5V15.8h-5.3v11.6z"/></g></switch></svg>